<svg width="201" height="28" viewBox="0 0 201 28" fill="none" xmlns="http://www.w3.org/2000/svg">
<path d="M1 14C1 6.80897 6.82948 0.979492 14.0205 0.979492C21.2115 0.979492 27.041 6.80897 27.041 14C27.041 21.191 21.2115 27.0205 14.0205 27.0205C6.82948 27.0205 1 21.191 1 14Z" fill="#353535"/>
<path d="M14.588 17.0205L18.0409 14.4993L14.588 11.978" fill="#353535"/>
<path d="M9.98407 14.4995H16.8899M14.588 17.0205L18.0409 14.4993L14.588 11.978M1 14C1 6.80897 6.82948 0.979492 14.0205 0.979492C21.2115 0.979492 27.041 6.80897 27.041 14C27.041 21.191 21.2115 27.0205 14.0205 27.0205C6.82948 27.0205 1 21.191 1 14Z" stroke="white" stroke-linecap="round" stroke-linejoin="round"/>
<path d="M66.0524 5.01709H61.1152V7.89709H66.0524V5.01709Z" fill="black"/>
<path d="M72.0875 5.01709H67.1504V7.89709H72.0875V5.01709Z" fill="black"/>
<path d="M103.629 23.9427H108.567V21.0627H103.629V23.9427ZM110.624 8.85703H104.452V14.8913C104.452 16.1256 104.041 16.6742 103.081 16.8113H72.9095V8.99417H65.3666C60.0181 8.99417 57.4124 11.0513 57.4124 15.0285C57.4124 16.2627 57.8238 17.3599 58.7838 18.3199C59.7438 19.417 60.8409 19.9656 62.2124 19.9656H105.412C106.784 19.9656 107.881 19.6913 108.841 19.0056C109.938 18.3199 110.487 17.2227 110.487 15.8513V8.85703H110.624ZM66.7381 16.8113H65.3666C64.1324 16.8113 63.3095 15.9885 63.3095 14.7542C63.3095 13.7942 63.4466 13.1085 63.8581 12.4227C64.1324 11.8742 64.6809 11.5999 65.2295 11.5999C66.0524 11.5999 66.7381 12.1485 66.7381 12.9713V16.8113ZM97.5952 23.9427H102.532V21.0627H97.5952V23.9427ZM118.578 5.01703H113.641V7.89703H118.578V5.01703ZM140.932 11.0513H132.292C132.978 8.99417 134.487 8.03417 136.955 8.03417H147.652V5.01703H136.132C133.664 5.01703 131.469 5.70274 129.549 7.07417C127.218 8.71988 125.984 11.0513 125.984 14.0685H137.915C139.149 14.0685 139.698 14.617 139.698 15.8513V16.8113H119.264V8.99417H113.229V19.1427C113.229 19.8285 113.092 20.377 112.955 20.6513C112.681 21.0627 112.269 21.1999 111.721 21.1999C111.447 21.1999 111.035 21.1999 110.761 21.1999V23.9427H113.641C115.698 23.9427 117.207 23.6685 118.029 22.9827C118.715 22.4342 119.127 21.4742 119.127 19.9656H147.515V16.1256C147.652 12.697 145.321 11.0513 140.932 11.0513ZM183.447 14.8913C183.447 16.1256 183.035 16.6742 182.075 16.8113H179.195C179.195 14.8913 178.372 13.3827 176.864 12.5599C175.492 11.737 173.572 11.3256 170.967 11.3256C168.361 11.3256 166.304 11.737 164.932 12.5599C163.424 13.3827 162.601 14.8913 162.601 16.8113H156.155V8.99417H150.121V19.1427C150.121 19.8285 149.984 20.377 149.847 20.6513C149.572 21.0627 149.161 21.1999 148.475 21.1999H147.515V23.9427C148.612 23.9427 149.572 23.9427 150.532 23.9427C152.59 23.9427 154.098 23.5313 154.921 22.8456C155.607 22.297 156.018 21.337 156.018 19.8285H163.287C164.384 21.6113 166.989 22.4342 170.829 22.4342C174.669 22.4342 177.275 21.6113 178.372 19.8285H184.407C185.778 19.8285 186.875 19.5542 187.835 19.0056C188.932 18.3199 189.481 17.2227 189.481 15.8513V4.87988H183.31V14.8913H183.447ZM170.967 19.9656C169.595 19.9656 169.047 19.0056 169.047 17.0856C169.047 15.1656 169.732 14.0685 170.967 14.0685C172.338 14.0685 173.024 15.0285 173.024 17.0856C173.024 19.0056 172.338 19.9656 170.967 19.9656ZM192.224 5.01703V19.9656H198.395V5.01703H192.224Z" fill="black"/>
</svg>
