<svg width="22" height="312" viewBox="0 0 22 312" fill="none" xmlns="http://www.w3.org/2000/svg">
<path d="M8.6 10H6.06667C5.6933 10 5.50661 10 5.36401 10.0727C5.23856 10.1366 5.13658 10.2386 5.07266 10.364C5 10.5066 5 10.6933 5 11.0667V13.6C5 13.9734 5 14.1601 5.07266 14.3027C5.13658 14.4281 5.23856 14.5301 5.36401 14.594C5.50661 14.6667 5.6933 14.6667 6.06667 14.6667H8.6C8.97337 14.6667 9.16005 14.6667 9.30266 14.594C9.4281 14.5301 9.53009 14.4281 9.594 14.3027C9.66667 14.1601 9.66667 13.9734 9.66667 13.6V11.0667C9.66667 10.6933 9.66667 10.5066 9.594 10.364C9.53009 10.2386 9.4281 10.1366 9.30266 10.0727C9.16005 10 8.97337 10 8.6 10Z" stroke="#626262" stroke-width="1.5" stroke-linecap="round" stroke-linejoin="round"/>
<path d="M15.9333 10H13.4C13.0266 10 12.8399 10 12.6973 10.0727C12.5719 10.1366 12.4699 10.2386 12.406 10.364C12.3333 10.5066 12.3333 10.6933 12.3333 11.0667V13.6C12.3333 13.9734 12.3333 14.1601 12.406 14.3027C12.4699 14.4281 12.5719 14.5301 12.6973 14.594C12.8399 14.6667 13.0266 14.6667 13.4 14.6667H15.9333C16.3067 14.6667 16.4934 14.6667 16.636 14.594C16.7614 14.5301 16.8634 14.4281 16.9273 14.3027C17 14.1601 17 13.9734 17 13.6V11.0667C17 10.6933 17 10.5066 16.9273 10.364C16.8634 10.2386 16.7614 10.1366 16.636 10.0727C16.4934 10 16.3067 10 15.9333 10Z" stroke="#626262" stroke-width="1.5" stroke-linecap="round" stroke-linejoin="round"/>
<path d="M15.9333 17.3333H13.4C13.0266 17.3333 12.8399 17.3333 12.6973 17.406C12.5719 17.4699 12.4699 17.5719 12.406 17.6973C12.3333 17.8399 12.3333 18.0266 12.3333 18.4V20.9333C12.3333 21.3067 12.3333 21.4934 12.406 21.636C12.4699 21.7614 12.5719 21.8634 12.6973 21.9273C12.8399 22 13.0266 22 13.4 22H15.9333C16.3067 22 16.4934 22 16.636 21.9273C16.7614 21.8634 16.8634 21.7614 16.9273 21.636C17 21.4934 17 21.3067 17 20.9333V18.4C17 18.0266 17 17.8399 16.9273 17.6973C16.8634 17.5719 16.7614 17.4699 16.636 17.406C16.4934 17.3333 16.3067 17.3333 15.9333 17.3333Z" stroke="#626262" stroke-width="1.5" stroke-linecap="round" stroke-linejoin="round"/>
<path d="M8.6 17.3333H6.06667C5.6933 17.3333 5.50661 17.3333 5.36401 17.406C5.23856 17.4699 5.13658 17.5719 5.07266 17.6973C5 17.8399 5 18.0266 5 18.4V20.9333C5 21.3067 5 21.4934 5.07266 21.636C5.13658 21.7614 5.23856 21.8634 5.36401 21.9273C5.50661 22 5.6933 22 6.06667 22H8.6C8.97337 22 9.16005 22 9.30266 21.9273C9.4281 21.8634 9.53009 21.7614 9.594 21.636C9.66667 21.4934 9.66667 21.3067 9.66667 20.9333V18.4C9.66667 18.0266 9.66667 17.8399 9.594 17.6973C9.53009 17.5719 9.4281 17.4699 9.30266 17.406C9.16005 17.3333 8.97337 17.3333 8.6 17.3333Z" stroke="#626262" stroke-width="1.5" stroke-linecap="round" stroke-linejoin="round"/>
<path fill-rule="evenodd" clip-rule="evenodd" d="M5.3999 77.6001C5.3999 77.1583 5.75807 76.8001 6.1999 76.8001H15.7999C16.2417 76.8001 16.5999 77.1583 16.5999 77.6001C16.5999 78.0419 16.2417 78.4001 15.7999 78.4001H6.1999C5.75807 78.4001 5.3999 78.0419 5.3999 77.6001ZM8.03422 71.4344C8.34664 71.122 8.85317 71.122 9.16559 71.4344L10.1999 72.4687L10.1999 66.4001C10.1999 65.9583 10.5581 65.6001 10.9999 65.6001C11.4417 65.6001 11.7999 65.9583 11.7999 66.4001V72.4687L12.8342 71.4344C13.1466 71.122 13.6532 71.122 13.9656 71.4344C14.278 71.7468 14.278 72.2534 13.9656 72.5658L11.5656 74.9658C11.4156 75.1158 11.2121 75.2001 10.9999 75.2001C10.7877 75.2001 10.5842 75.1158 10.4342 74.9658L8.03422 72.5658C7.7218 72.2534 7.7218 71.7468 8.03422 71.4344Z" fill="#626262"/>
<path fill-rule="evenodd" clip-rule="evenodd" d="M5.3999 133.6C5.3999 133.158 5.75807 132.8 6.1999 132.8H15.7999C16.2417 132.8 16.5999 133.158 16.5999 133.6C16.5999 134.042 16.2417 134.4 15.7999 134.4H6.1999C5.75807 134.4 5.3999 134.042 5.3999 133.6ZM8.03422 125.366C7.7218 125.053 7.7218 124.547 8.03422 124.234L10.4342 121.834C10.5842 121.684 10.7877 121.6 10.9999 121.6C11.2121 121.6 11.4156 121.684 11.5656 121.834L13.9656 124.234C14.278 124.547 14.278 125.053 13.9656 125.366C13.6532 125.678 13.1466 125.678 12.8342 125.366L11.7999 124.331V130.4C11.7999 130.842 11.4417 131.2 10.9999 131.2C10.5581 131.2 10.1999 130.842 10.1999 130.4L10.1999 124.331L9.16559 125.366C8.85317 125.678 8.34664 125.678 8.03422 125.366Z" fill="black"/>
<path d="M12.3334 183.333H8.33341M9.66675 186H8.33341M13.6667 180.667H8.33341M16.3334 180.533V187.467C16.3334 188.587 16.3334 189.147 16.1154 189.575C15.9237 189.951 15.6177 190.257 15.2414 190.449C14.8136 190.667 14.2535 190.667 13.1334 190.667H8.86675C7.74664 190.667 7.18659 190.667 6.75877 190.449C6.38244 190.257 6.07648 189.951 5.88473 189.575C5.66675 189.147 5.66675 188.587 5.66675 187.467V180.533C5.66675 179.413 5.66675 178.853 5.88473 178.425C6.07648 178.049 6.38244 177.743 6.75877 177.551C7.18659 177.333 7.74664 177.333 8.86675 177.333H13.1334C14.2535 177.333 14.8136 177.333 15.2414 177.551C15.6177 177.743 15.9237 178.049 16.1154 178.425C16.3334 178.853 16.3334 179.413 16.3334 180.533Z" stroke="#626262" stroke-width="1.5" stroke-linecap="round" stroke-linejoin="round"/>
<path d="M12.3334 239.333H8.33341M9.66675 242H8.33341M13.6667 236.667H8.33341M16.3334 236.533V243.467C16.3334 244.587 16.3334 245.147 16.1154 245.575C15.9237 245.951 15.6177 246.257 15.2414 246.449C14.8136 246.667 14.2535 246.667 13.1334 246.667H8.86675C7.74664 246.667 7.18659 246.667 6.75877 246.449C6.38244 246.257 6.07648 245.951 5.88473 245.575C5.66675 245.147 5.66675 244.587 5.66675 243.467V236.533C5.66675 235.413 5.66675 234.853 5.88473 234.425C6.07648 234.049 6.38244 233.743 6.75877 233.551C7.18659 233.333 7.74664 233.333 8.86675 233.333H13.1334C14.2535 233.333 14.8136 233.333 15.2414 233.551C15.6177 233.743 15.9237 234.049 16.1154 234.425C16.3334 234.853 16.3334 235.413 16.3334 236.533Z" stroke="#626262" stroke-width="1.5" stroke-linecap="round" stroke-linejoin="round"/>
<g clip-path="url(#clip0_94_3884)">
<path d="M4.33325 296L10.7614 299.214C10.8489 299.258 10.8926 299.28 10.9385 299.288C10.9791 299.296 11.0208 299.296 11.0614 299.288C11.1073 299.28 11.151 299.258 11.2384 299.214L17.6666 296M4.33325 299.333L10.7614 302.547C10.8489 302.591 10.8926 302.613 10.9385 302.621C10.9791 302.629 11.0208 302.629 11.0614 302.621C11.1073 302.613 11.151 302.591 11.2384 302.547L17.6666 299.333M4.33325 292.667L10.7614 289.452C10.8489 289.409 10.8926 289.387 10.9385 289.378C10.9791 289.371 11.0208 289.371 11.0614 289.378C11.1073 289.387 11.151 289.409 11.2384 289.452L17.6666 292.667L11.2384 295.881C11.151 295.924 11.1073 295.946 11.0614 295.955C11.0208 295.962 10.9791 295.962 10.9385 295.955C10.8926 295.946 10.8489 295.924 10.7614 295.881L4.33325 292.667Z" stroke="#626262" stroke-width="1.5" stroke-linecap="round" stroke-linejoin="round"/>
</g>
<defs>
<clipPath id="clip0_94_3884">
<rect width="16" height="16" fill="white" transform="translate(3 288)"/>
</clipPath>
</defs>
</svg>
